# xmcd
#
# Track frame offsets:
#	150
#	19280
#	35835
#	55590
#	72982
#	91267
#	108752
#	126307
#	144707
#	159002
#	174180
#	193770
#	211905
#	228837
#	247677
#	267087
#	286357
#	305995
#	321165
#	337752
#
# Disc length: 4744 seconds
#
# Revision: 0
# Processed by: cddbd v1.5.1PL0 Copyright (c) Steve Scherf et al.
# Submitted via: EasyCDDAExtractor 8.0.1.1
#
DISCID=13128614
DTITLE=Anne Murray - The Signature Series Vol. 10
DYEAR=1900
DGENRE=
TTITLE0=Now And Forever (You And Me)
TTITLE1=Who's Leaving Who
TTITLE2=My Life's A Dance
TTITLE3=Call Us Fools
TTITLE4=On And On
TTITLE5=Heartaches
TTITLE6=Reach For Me
TTITLE7=When You're Gone
TTITLE8=You Never Know
TTITLE9=Gotcha
TTITLE10=Are You Still In Love With Me
TTITLE11=Anyone Can Do The Heartbreak
TTITLE12=The Great Divide
TTITLE13=Tonight (I Want To Be In Love)
TTITLE14=Perfect Strangers
TTITLE15=Give Me Your Love
TTITLE16=It Happens All The Time
TTITLE17=Harmony
TTITLE18=Natural Love
TTITLE19=Without You
EXTD=
EXTT0=
EXTT1=
EXTT2=
EXTT3=
EXTT4=
EXTT5=
EXTT6=
EXTT7=
EXTT8=
EXTT9=
EXTT10=
EXTT11=
EXTT12=
EXTT13=
EXTT14=
EXTT15=
EXTT16=
EXTT17=
EXTT18=
EXTT19=
PLAYORDER=
